<svg xmlns="http://www.w3.org/2000/svg" width="880" height="124" viewBox="0 0 880 124" role="img" aria-label="20+ products shipped · 6 industries · 99.9% uptime · 3.8 GPA · Full scholarship"><style>.sans{font-family:'Inter','Segoe UI','Helvetica Neue',-apple-system,BlinkMacSystemFont,Roboto,Arial,sans-serif}.mono{font-family:ui-monospace,'SFMono-Regular','JetBrains Mono',Menlo,Consolas,monospace}.fg{fill:#1C1E21}.muted{fill:#676C73}.accent{fill:#2F4F6F}.rose{fill:#B5577D}@keyframes up{from{opacity:0;transform:translateY(10px)}to{opacity:1;transform:none}}.up{opacity:0;animation:up .8s cubic-bezier(.2,.7,.2,1) forwards}@keyframes pulse{0%,100%{opacity:1}50%{opacity:.25}}.pulse{animation:pulse 2.4s ease-in-out infinite}@keyframes ring{0%{r:5;opacity:.7}100%{r:16;opacity:0}}@keyframes float{0%,100%{transform:translateY(0)}50%{transform:translateY(-4px)}}.float{animation:float 4s ease-in-out infinite}@media (prefers-reduced-motion:reduce){.up{opacity:1;animation:none}.pulse,.float{animation:none}}.num{font-size:34px;font-weight:700;letter-spacing:-.02em}.lbl{font-size:13px}</style><g class="up" style="animation-delay:0.00s"><rect x="0.5" y=".5" width="165.4" height="123" rx="14" fill="#F6F4EF" stroke="#D8D3C9"/><text x="20.0" y="58" class="sans num fg">20+</text><text x="20.0" y="84" class="sans lbl muted">products shipped</text><rect x="20.0" y="100" width="126.4" height="3" rx="1.5" fill="#D8D3C9"/><rect x="20.0" y="100" width="0" height="3" rx="1.5" fill="#2F4F6F"><animate attributeName="width" from="0" to="126.4" begin="0.40s" dur="1.2s" fill="freeze" calcMode="spline" keySplines=".2 .7 .2 1"/></rect></g><g class="up" style="animation-delay:0.15s"><rect x="178.9" y=".5" width="165.4" height="123" rx="14" fill="#F6F4EF" stroke="#D8D3C9"/><text x="198.4" y="58" class="sans num fg">6</text><text x="198.4" y="84" class="sans lbl muted">industries</text><rect x="198.4" y="100" width="126.4" height="3" rx="1.5" fill="#D8D3C9"/><rect x="198.4" y="100" width="0" height="3" rx="1.5" fill="#B5577D"><animate attributeName="width" from="0" to="126.4" begin="0.55s" dur="1.2s" fill="freeze" calcMode="spline" keySplines=".2 .7 .2 1"/></rect></g><g class="up" style="animation-delay:0.30s"><rect x="357.3" y=".5" width="165.4" height="123" rx="14" fill="#F6F4EF" stroke="#D8D3C9"/><text x="376.8" y="58" class="sans num fg">99.9%</text><text x="376.8" y="84" class="sans lbl muted">uptime</text><rect x="376.8" y="100" width="126.4" height="3" rx="1.5" fill="#D8D3C9"/><rect x="376.8" y="100" width="0" height="3" rx="1.5" fill="#2F4F6F"><animate attributeName="width" from="0" to="126.4" begin="0.70s" dur="1.2s" fill="freeze" calcMode="spline" keySplines=".2 .7 .2 1"/></rect></g><g class="up" style="animation-delay:0.45s"><rect x="535.7" y=".5" width="165.4" height="123" rx="14" fill="#F6F4EF" stroke="#D8D3C9"/><text x="555.2" y="58" class="sans num fg">3.8</text><text x="555.2" y="84" class="sans lbl muted">GPA</text><rect x="555.2" y="100" width="126.4" height="3" rx="1.5" fill="#D8D3C9"/><rect x="555.2" y="100" width="0" height="3" rx="1.5" fill="#B5577D"><animate attributeName="width" from="0" to="126.4" begin="0.85s" dur="1.2s" fill="freeze" calcMode="spline" keySplines=".2 .7 .2 1"/></rect></g><g class="up" style="animation-delay:0.60s"><rect x="714.1" y=".5" width="165.4" height="123" rx="14" fill="#F6F4EF" stroke="#D8D3C9"/><text x="733.6" y="58" class="sans num fg">Full</text><text x="733.6" y="84" class="sans lbl muted">scholarship</text><rect x="733.6" y="100" width="126.4" height="3" rx="1.5" fill="#D8D3C9"/><rect x="733.6" y="100" width="0" height="3" rx="1.5" fill="#2F4F6F"><animate attributeName="width" from="0" to="126.4" begin="1.00s" dur="1.2s" fill="freeze" calcMode="spline" keySplines=".2 .7 .2 1"/></rect></g></svg>
